<?xml version="1.0" encoding="utf-8"?>
<!-- Generator: Adobe Illustrator 21.0.0, SVG Export Plug-In . SVG Version: 6.00 Build 0)  -->
<svg version="1.1" id="Livello_1" xmlns="http://www.w3.org/2000/svg" xmlns:xlink="http://www.w3.org/1999/xlink" x="0px" y="0px"
	 viewBox="0 0 100 100" style="enable-background:new 0 0 100 100;" xml:space="preserve">
<style type="text/css">
	.st0{fill:none;}
	.st1{fill:#CCD331;}
	.st2{fill:#AA4B94;}
</style>
<rect class="st0" width="100" height="100"/>
<g>
	<path class="st1" d="M79.1,50.2L79.1,50.2c-3.7-4-6.7-6.6-9-8.1c0.6-2.8,0.9-6.8,0.7-12.4l0,0c0,0,0,0,0,0c0,0,0,0,0,0l0,0
		c-5.5-0.3-9.3,0-12.1,0.6c-1.5-2.4-4.1-5.4-8.3-9.3v-0.1c0,0,0,0,0,0c0,0,0,0,0,0v0.1c-4,3.7-6.6,6.6-8.1,9
		c-2.8-0.6-6.8-0.9-12.4-0.7l0,0c0,0,0,0,0,0c0,0,0,0,0,0l0,0c-0.3,5.5,0,9.3,0.6,12.1c-2.4,1.5-5.4,4.1-9.3,8.3h-0.1c0,0,0,0,0,0
		c0,0,0,0,0,0h0.1c3.7,4,6.6,6.6,9,8.1c-0.6,2.8-0.9,6.8-0.7,12.4l0,0c0,0,0,0,0,0c0,0,0,0,0,0l0,0c5.5,0.3,9.3,0,12.1-0.6
		c1.5,2.4,4.1,5.4,8.3,9.3v0.1c0,0,0,0,0,0c0,0,0,0,0,0v-0.1c4-3.7,6.6-6.6,8.1-9c2.8,0.6,6.8,0.9,12.4,0.7l0,0c0,0,0,0,0,0
		c0,0,0,0,0,0l0,0c0.3-5.5,0-9.3-0.6-12.1C72.2,57.1,75.2,54.5,79.1,50.2L79.1,50.2C79.1,50.3,79.1,50.3,79.1,50.2
		C79.1,50.2,79.1,50.2,79.1,50.2z M50,67.1c-9.4,0-17.1-7.7-17.1-17.1c0-5.1,2.2-9.6,5.7-12.7c3-2.7,7-4.4,11.4-4.4
		s8.4,1.7,11.4,4.4c3.5,3.1,5.7,7.7,5.7,12.7C67.1,59.4,59.4,67.1,50,67.1z"/>
	<path class="st2" d="M60.1,38.7c-2.7-2.4-6.2-3.9-10.1-3.9s-7.4,1.5-10.1,3.9c-3.1,2.8-5.1,6.8-5.1,11.3c0,8.4,6.8,15.2,15.2,15.2
		S65.2,58.4,65.2,50C65.2,45.5,63.3,41.4,60.1,38.7z"/>
</g>
</svg>
