<svg width="64" height="64" viewBox="0 0 64 64" xmlns="http://www.w3.org/2000/svg" role="img" aria-label="La Margarita">
  <defs>
    <linearGradient id="bg" x1="8" y1="4" x2="56" y2="60" gradientUnits="userSpaceOnUse">
      <stop stop-color="#1a8f76"/>
      <stop offset="1" stop-color="#22a88c"/>
    </linearGradient>
    <radialGradient id="center" cx="0" cy="0" r="1" gradientUnits="userSpaceOnUse" gradientTransform="translate(32 32) scale(9)">
      <stop stop-color="#f8c96a"/>
      <stop offset="1" stop-color="#e8a832"/>
    </radialGradient>
  </defs>
  <rect width="64" height="64" rx="16" fill="url(#bg)"/>
  <rect x="0.5" y="0.5" width="63" height="63" rx="15.5" fill="none" stroke="rgba(255,255,255,0.18)" stroke-width="1"/>
  <g transform="translate(32 32)">
    <ellipse cx="0" cy="-14" rx="5.2" ry="11" fill="#ffffff" fill-opacity="0.97" transform="rotate(0)"/>
    <ellipse cx="0" cy="-14" rx="5.2" ry="11" fill="#ffffff" fill-opacity="0.97" transform="rotate(45)"/>
    <ellipse cx="0" cy="-14" rx="5.2" ry="11" fill="#ffffff" fill-opacity="0.97" transform="rotate(90)"/>
    <ellipse cx="0" cy="-14" rx="5.2" ry="11" fill="#ffffff" fill-opacity="0.97" transform="rotate(135)"/>
    <ellipse cx="0" cy="-14" rx="5.2" ry="11" fill="#ffffff" fill-opacity="0.97" transform="rotate(180)"/>
    <ellipse cx="0" cy="-14" rx="5.2" ry="11" fill="#ffffff" fill-opacity="0.97" transform="rotate(225)"/>
    <ellipse cx="0" cy="-14" rx="5.2" ry="11" fill="#ffffff" fill-opacity="0.97" transform="rotate(270)"/>
    <ellipse cx="0" cy="-14" rx="5.2" ry="11" fill="#ffffff" fill-opacity="0.97" transform="rotate(315)"/>
    <circle r="9" fill="url(#center)"/>
    <circle r="9" fill="none" stroke="#d4921f" stroke-width="0.8" stroke-opacity="0.5"/>
    <circle r="3.2" fill="#f5e6b8" fill-opacity="0.55"/>
  </g>
</svg>
